<svg id="visual" viewBox="0 0 1920 1080" width="1920" height="1080" xmlns="http://www.w3.org/2000/svg" xmlns:xlink="http://www.w3.org/1999/xlink" version="1.1"><rect x="0" y="0" width="1920" height="1080" fill="#000000"></rect><path d="M0 735L45.7 731.8C91.3 728.7 182.7 722.3 274.2 712.8C365.7 703.3 457.3 690.7 548.8 691.2C640.3 691.7 731.7 705.3 823 700.7C914.3 696 1005.7 673 1097 665.7C1188.3 658.3 1279.7 666.7 1371.2 682.5C1462.7 698.3 1554.3 721.7 1645.8 718.8C1737.3 716 1828.7 687 1874.3 672.5L1920 658L1920 1081L1874.3 1081C1828.7 1081 1737.3 1081 1645.8 1081C1554.3 1081 1462.7 1081 1371.2 1081C1279.7 1081 1188.3 1081 1097 1081C1005.7 1081 914.3 1081 823 1081C731.7 1081 640.3 1081 548.8 1081C457.3 1081 365.7 1081 274.2 1081C182.7 1081 91.3 1081 45.7 1081L0 1081Z" fill="#149b58"></path><path d="M0 714L45.7 733C91.3 752 182.7 790 274.2 810.7C365.7 831.3 457.3 834.7 548.8 822.3C640.3 810 731.7 782 823 767.5C914.3 753 1005.7 752 1097 748.2C1188.3 744.3 1279.7 737.7 1371.2 735.2C1462.7 732.7 1554.3 734.3 1645.8 735.5C1737.3 736.7 1828.7 737.3 1874.3 737.7L1920 738L1920 1081L1874.3 1081C1828.7 1081 1737.3 1081 1645.8 1081C1554.3 1081 1462.7 1081 1371.2 1081C1279.7 1081 1188.3 1081 1097 1081C1005.7 1081 914.3 1081 823 1081C731.7 1081 640.3 1081 548.8 1081C457.3 1081 365.7 1081 274.2 1081C182.7 1081 91.3 1081 45.7 1081L0 1081Z" fill="#12874d"></path><path d="M0 838L45.7 842.5C91.3 847 182.7 856 274.2 864C365.7 872 457.3 879 548.8 878.2C640.3 877.3 731.7 868.7 823 852.3C914.3 836 1005.7 812 1097 807.8C1188.3 803.7 1279.7 819.3 1371.2 840C1462.7 860.7 1554.3 886.3 1645.8 900.5C1737.3 914.7 1828.7 917.3 1874.3 918.7L1920 920L1920 1081L1874.3 1081C1828.7 1081 1737.3 1081 1645.8 1081C1554.3 1081 1462.7 1081 1371.2 1081C1279.7 1081 1188.3 1081 1097 1081C1005.7 1081 914.3 1081 823 1081C731.7 1081 640.3 1081 548.8 1081C457.3 1081 365.7 1081 274.2 1081C182.7 1081 91.3 1081 45.7 1081L0 1081Z" fill="#107442"></path><path d="M0 934L45.7 927.2C91.3 920.3 182.7 906.7 274.2 897.8C365.7 889 457.3 885 548.8 890.7C640.3 896.3 731.7 911.7 823 913.2C914.3 914.7 1005.7 902.3 1097 908.8C1188.3 915.3 1279.7 940.7 1371.2 947.8C1462.7 955 1554.3 944 1645.8 933.5C1737.3 923 1828.7 913 1874.3 908L1920 903L1920 1081L1874.3 1081C1828.7 1081 1737.3 1081 1645.8 1081C1554.3 1081 1462.7 1081 1371.2 1081C1279.7 1081 1188.3 1081 1097 1081C1005.7 1081 914.3 1081 823 1081C731.7 1081 640.3 1081 548.8 1081C457.3 1081 365.7 1081 274.2 1081C182.7 1081 91.3 1081 45.7 1081L0 1081Z" fill="#0e6137"></path><path d="M0 976L45.7 981.3C91.3 986.7 182.7 997.3 274.2 1006.2C365.7 1015 457.3 1022 548.8 1014C640.3 1006 731.7 983 823 973.2C914.3 963.3 1005.7 966.7 1097 973.7C1188.3 980.7 1279.7 991.3 1371.2 988.2C1462.7 985 1554.3 968 1645.8 958.7C1737.3 949.3 1828.7 947.7 1874.3 946.8L1920 946L1920 1081L1874.3 1081C1828.7 1081 1737.3 1081 1645.8 1081C1554.3 1081 1462.7 1081 1371.2 1081C1279.7 1081 1188.3 1081 1097 1081C1005.7 1081 914.3 1081 823 1081C731.7 1081 640.3 1081 548.8 1081C457.3 1081 365.7 1081 274.2 1081C182.7 1081 91.3 1081 45.7 1081L0 1081Z" fill="#0c4f2d"></path></svg>