<svg width="501" height="501" viewBox="0 0 501 501" fill="none" xmlns="http://www.w3.org/2000/svg">
<path d="M276.977 7.88017C301.637 -7.92983 334.557 0.890198 348.007 26.9102C356.927 44.1702 375.097 54.6602 394.507 53.7602C423.767 52.4002 447.867 76.5002 446.507 105.76C445.607 125.17 456.087 143.33 473.357 152.26C499.377 165.71 508.197 198.63 492.387 223.29C481.897 239.65 481.897 260.62 492.387 276.98C508.197 301.64 499.377 334.56 473.357 348.01C456.097 356.93 445.607 375.1 446.507 394.51C447.867 423.77 423.767 447.87 394.507 446.51C375.097 445.61 356.937 456.09 348.007 473.36C334.557 499.38 301.637 508.2 276.977 492.39C260.617 481.9 239.647 481.9 223.287 492.39C198.627 508.2 165.707 499.38 152.257 473.36C143.337 456.1 125.167 445.61 105.757 446.51C76.4968 447.87 52.3968 423.77 53.7568 394.51C54.6568 375.1 44.1767 356.94 26.9067 348.01C0.88669 334.56 -7.93322 301.64 7.87678 276.98C18.3668 260.62 18.3668 239.65 7.87678 223.29C-7.93322 198.63 0.88669 165.71 26.9067 152.26C44.1667 143.34 54.6568 125.17 53.7568 105.76C52.3968 76.5002 76.4968 52.4002 105.757 53.7602C125.167 54.6602 143.327 44.1802 152.257 26.9102C165.707 0.890198 198.627 -7.92983 223.287 7.88017C239.647 18.3602 260.617 18.3602 276.977 7.88017Z" fill="#00AC65"/>
<path d="M213.976 359.41L112.816 278.07L148.676 233.47L209.216 282.15L346.386 140.87L387.446 180.73L213.976 359.41Z" fill="white"/>
</svg>
