<?xml version="1.0" encoding="utf-8"?>
<svg viewBox="-719.516 315.318 1920 423" xmlns="http://www.w3.org/2000/svg">
  <path d="M -719.516 392.318 L -673.816 389.118 C -628.216 386.018 -536.816 379.618 -445.316 370.118 C -353.816 360.618 -262.216 348.018 -170.716 348.518 C -79.216 349.018 12.184 362.618 103.484 358.018 C 194.784 353.318 286.184 330.318 377.484 323.018 C 468.784 315.618 560.184 324.018 651.684 339.818 C 743.184 355.618 834.784 379.018 926.284 376.118 C 1017.784 373.318 1109.184 344.318 1154.784 329.818 L 1200.484 315.318 L 1200.484 738.318 L 1154.784 738.318 C 1109.184 738.318 1017.784 738.318 926.284 738.318 C 834.784 738.318 743.184 738.318 651.684 738.318 C 560.184 738.318 468.784 738.318 377.484 738.318 C 286.184 738.318 194.784 738.318 103.484 738.318 C 12.184 738.318 -79.216 738.318 -170.716 738.318 C -262.216 738.318 -353.816 738.318 -445.316 738.318 C -536.816 738.318 -628.216 738.318 -673.816 738.318 L -719.516 738.318 L -719.516 392.318 Z" fill="#149b58"/>
  <path d="M -719.516 371.318 L -673.816 390.318 C -628.216 409.318 -536.816 447.318 -445.316 468.018 C -353.816 488.618 -262.216 492.018 -170.716 479.618 C -79.216 467.318 12.184 439.318 103.484 424.818 C 194.784 410.318 286.184 409.318 377.484 405.518 C 468.784 401.618 560.184 395.018 651.684 392.518 C 743.184 390.018 834.784 391.618 926.284 392.818 C 1017.784 394.018 1109.184 394.618 1154.784 395.018 L 1200.484 395.318 L 1200.484 738.318 L 1154.784 738.318 C 1109.184 738.318 1017.784 738.318 926.284 738.318 C 834.784 738.318 743.184 738.318 651.684 738.318 C 560.184 738.318 468.784 738.318 377.484 738.318 C 286.184 738.318 194.784 738.318 103.484 738.318 C 12.184 738.318 -79.216 738.318 -170.716 738.318 C -262.216 738.318 -353.816 738.318 -445.316 738.318 C -536.816 738.318 -628.216 738.318 -673.816 738.318 L -719.516 738.318 L -719.516 371.318 Z" fill="#12874d"/>
  <path d="M -719.516 495.318 L -673.816 499.818 C -628.216 504.318 -536.816 513.318 -445.316 521.318 C -353.816 529.318 -262.216 536.318 -170.716 535.518 C -79.216 534.618 12.184 526.018 103.484 509.618 C 194.784 493.318 286.184 469.318 377.484 465.118 C 468.784 461.018 560.184 476.618 651.684 497.318 C 743.184 518.018 834.784 543.618 926.284 557.818 C 1017.784 572.018 1109.184 574.618 1154.784 576.018 L 1200.484 577.318 L 1200.484 738.318 L 1154.784 738.318 C 1109.184 738.318 1017.784 738.318 926.284 738.318 C 834.784 738.318 743.184 738.318 651.684 738.318 C 560.184 738.318 468.784 738.318 377.484 738.318 C 286.184 738.318 194.784 738.318 103.484 738.318 C 12.184 738.318 -79.216 738.318 -170.716 738.318 C -262.216 738.318 -353.816 738.318 -445.316 738.318 C -536.816 738.318 -628.216 738.318 -673.816 738.318 L -719.516 738.318 L -719.516 495.318 Z" fill="#107442"/>
  <path d="M -719.516 591.318 L -673.816 584.518 C -628.216 577.618 -536.816 564.018 -445.316 555.118 C -353.816 546.318 -262.216 542.318 -170.716 548.018 C -79.216 553.618 12.184 569.018 103.484 570.518 C 194.784 572.018 286.184 559.618 377.484 566.118 C 468.784 572.618 560.184 598.018 651.684 605.118 C 743.184 612.318 834.784 601.318 926.284 590.818 C 1017.784 580.318 1109.184 570.318 1154.784 565.318 L 1200.484 560.318 L 1200.484 738.318 L 1154.784 738.318 C 1109.184 738.318 1017.784 738.318 926.284 738.318 C 834.784 738.318 743.184 738.318 651.684 738.318 C 560.184 738.318 468.784 738.318 377.484 738.318 C 286.184 738.318 194.784 738.318 103.484 738.318 C 12.184 738.318 -79.216 738.318 -170.716 738.318 C -262.216 738.318 -353.816 738.318 -445.316 738.318 C -536.816 738.318 -628.216 738.318 -673.816 738.318 L -719.516 738.318 L -719.516 591.318 Z" fill="#0e6137"/>
  <path d="M -719.516 633.318 L -673.816 638.618 C -628.216 644.018 -536.816 654.618 -445.316 663.518 C -353.816 672.318 -262.216 679.318 -170.716 671.318 C -79.216 663.318 12.184 640.318 103.484 630.518 C 194.784 620.618 286.184 624.018 377.484 631.018 C 468.784 638.018 560.184 648.618 651.684 645.518 C 743.184 642.318 834.784 625.318 926.284 616.018 C 1017.784 606.618 1109.184 605.018 1154.784 604.118 L 1200.484 603.318 L 1200.484 738.318 L 1154.784 738.318 C 1109.184 738.318 1017.784 738.318 926.284 738.318 C 834.784 738.318 743.184 738.318 651.684 738.318 C 560.184 738.318 468.784 738.318 377.484 738.318 C 286.184 738.318 194.784 738.318 103.484 738.318 C 12.184 738.318 -79.216 738.318 -170.716 738.318 C -262.216 738.318 -353.816 738.318 -445.316 738.318 C -536.816 738.318 -628.216 738.318 -673.816 738.318 L -719.516 738.318 L -719.516 633.318 Z" fill="#0c4f2d"/>
</svg>