<svg width="1598" height="470" viewBox="0 0 1598 470" fill="none" xmlns="http://www.w3.org/2000/svg">
<path d="M18.1901 186.389C30.3201 164.179 47.2301 147.089 68.9401 135.129C90.6401 123.169 115.5 117.189 143.53 117.189C179.42 117.189 209.4 126.589 233.5 145.379C257.59 164.179 273.4 190.669 280.92 224.839H187.62C179.75 202.969 164.55 192.03 142 192.03C125.93 192.03 113.12 198.27 103.55 210.74C93.9801 223.22 89.2001 241.069 89.2001 264.309C89.2001 287.549 93.9801 305.409 103.55 317.879C113.11 330.359 125.93 336.589 142 336.589C164.56 336.589 179.76 325.66 187.62 303.78H280.92C273.4 337.28 257.51 363.589 233.25 382.729C208.98 401.869 179.08 411.439 143.54 411.439C115.51 411.439 90.6501 405.46 68.9501 393.5C47.2401 381.54 30.3301 364.46 18.2001 342.24C6.06008 320.03 1.23557e-05 294.049 1.23557e-05 264.319C-0.00998764 234.579 6.05007 208.609 18.1901 186.389Z" fill="white"/>
<path d="M587.47 285.329H389.08C390.44 303.099 396.17 316.689 406.25 326.089C416.33 335.489 428.72 340.189 443.42 340.189C465.29 340.189 480.5 330.959 489.04 312.509H582.34C577.55 331.309 568.92 348.229 556.45 363.259C543.97 378.299 528.34 390.089 509.54 398.629C490.74 407.179 469.72 411.449 446.49 411.449C418.46 411.449 393.51 405.469 371.65 393.509C349.77 381.549 332.69 364.469 320.39 342.249C308.09 320.039 301.93 294.059 301.93 264.329C301.93 234.599 307.99 208.629 320.13 186.409C332.26 164.199 349.26 147.109 371.14 135.149C393.01 123.189 418.13 117.209 446.5 117.209C474.18 117.209 498.79 123.019 520.32 134.639C541.85 146.259 558.68 162.829 570.81 184.369C582.94 205.899 589.01 231.019 589.01 259.729C589 267.899 588.49 276.439 587.47 285.329ZM499.29 236.629C499.29 221.599 494.16 209.639 483.91 200.749C473.66 191.869 460.84 187.419 445.46 187.419C430.76 187.419 418.37 191.699 408.29 200.239C398.21 208.789 391.97 220.919 389.58 236.639H499.29V236.629Z" fill="white"/>
<path d="M787.39 121.279V194.079H763.3C741.42 194.079 727.6 200.249 712.9 214.949C698.2 229.649 697.68 250.979 697.68 274.559V407.329H610.02V121.279H697.68V154.459C718.65 117.179 754.08 121.279 787.39 121.279Z" fill="white"/>
<path d="M988.86 332.999V407.329H944.26C912.48 407.329 887.69 399.559 869.93 384.009C852.16 368.459 843.27 343.089 843.27 307.879V194.069H808.41V121.269H843.27V51.5493H930.93V121.269H988.35V194.069H930.93V308.899C930.93 317.449 932.98 323.599 937.08 327.349C941.18 331.109 948.01 332.989 957.59 332.989H988.86V332.999Z" fill="white"/>
<path d="M1285.81 194.079H1238.65V407.339H1150.99V194.079H1119.21V121.279H1150.99V113.079C1150.99 77.8789 1161.07 51.1389 1181.24 32.8489C1201.4 14.5689 1230.97 5.41895 1269.93 5.41895C1276.42 5.41895 1281.21 5.59896 1284.28 5.92896V80.259C1267.53 79.229 1255.74 81.629 1248.91 87.439C1242.07 93.249 1238.66 103.679 1238.66 118.709V121.269H1285.82V194.079H1285.81Z" fill="white"/>
<path d="M1597.68 121.279L1447.04 469.309H1345.64L1404.9 344.949L1306.83 121.279H1409.9L1454.13 240.629L1495.44 121.279H1597.68Z" fill="white"/>
<path d="M1098.18 121.279H1010.52V209.599H1010.18V325.999V345.359V407.329L1054.01 381.759L1097.84 407.329V345.359V325.999V275.709H1098.18V121.279Z" fill="white"/>
<path d="M1058.74 1.38912C1063.09 -1.40088 1068.9 0.159225 1071.27 4.74923C1072.84 7.79923 1076.05 9.64922 1079.47 9.48922C1084.63 9.24922 1088.89 13.4991 1088.64 18.6591C1088.48 22.0891 1090.33 25.2891 1093.38 26.8591C1097.97 29.2291 1099.53 35.0391 1096.74 39.3891C1094.89 42.2791 1094.89 45.9791 1096.74 48.8591C1099.53 53.2091 1097.97 59.0191 1093.38 61.3891C1090.33 62.9591 1088.48 66.1691 1088.64 69.5891C1088.88 74.7491 1084.63 79.0092 1079.47 78.7592C1076.04 78.5992 1072.84 80.4492 1071.27 83.4992C1068.9 88.0892 1063.09 89.6491 1058.74 86.8591C1055.85 85.0091 1052.15 85.0091 1049.27 86.8591C1044.92 89.6491 1039.11 88.0892 1036.74 83.4992C1035.17 80.4492 1031.96 78.5992 1028.54 78.7592C1023.38 78.9992 1019.12 74.7491 1019.37 69.5891C1019.53 66.1591 1017.68 62.9591 1014.63 61.3891C1010.04 59.0191 1008.48 53.2091 1011.27 48.8591C1013.12 45.9691 1013.12 42.2691 1011.27 39.3891C1008.48 35.0391 1010.04 29.2291 1014.63 26.8591C1017.68 25.2891 1019.53 22.0791 1019.37 18.6591C1019.13 13.4991 1023.38 9.23922 1028.54 9.48922C1031.97 9.64922 1035.17 7.79923 1036.74 4.74923C1039.11 0.159225 1044.92 -1.40088 1049.27 1.38912C1052.16 3.23912 1055.86 3.23912 1058.74 1.38912Z" fill="#00AC65"/>
<path d="M1047.63 63.4092L1029.78 49.0591L1036.11 41.1892L1046.79 49.7793L1070.99 24.8491L1078.24 31.8792L1047.63 63.4092Z" fill="white"/>
</svg>
